# xmcd
#
# Track frame offsets: 
#        150
#        22817
#        43107
#        65600
#        85392
#        107993
#        124950
#        144960
#        164238
#        184964
#        204391
#        225533
#        244367
#        262413
#        281534
#        297950
#        320008
#
# Disc length: 4567 seconds
#
# Revision: 0
# Processed by: cddbd v1.5.2PL0 Copyright (c) Steve Scherf et al.
# Submitted via: ExactAudioCopy v1.1
#
DISCID=1011d511
DTITLE=林忆莲 - 林忆莲 精选 Best Sound Best Hits UPM 24K金碟
DYEAR=2017
DGENRE=
TTITLE0=破晓
TTITLE1=还有 
TTITLE2=依然
TTITLE3=倾钭
TTITLE4=前尘   
TTITLE5=你是我的男人
TTITLE6=夜了…没借口
TTITLE7=一分钟都市一分钟恋爱
TTITLE8=你令我性感 
TTITLE9=微凉
TTITLE10=微雨扑巴黎
TTITLE11=三更夜半
TTITLE12=此情只待成追忆
TTITLE13=疯了
TTITLE14=请多错多
TTITLE15=情人的眼泪
TTITLE16=爱上一个不回家的人
EXTD=
EXTT0=
EXTT1=
EXTT2=
EXTT3=
EXTT4=
EXTT5=
EXTT6=
EXTT7=
EXTT8=
EXTT9=
EXTT10=
EXTT11=
EXTT12=
EXTT13=
EXTT14=
EXTT15=
EXTT16=
PLAYORDER=
